<mxfile host="app.diagrams.net" modified="2023-10-05T23:59:29.092Z" agent="Mozilla/5.0 (Macintosh; Intel Mac OS X 10_15_7) AppleWebKit/537.36 (KHTML, like Gecko) Chrome/117.0.0.0 Safari/537.36" etag="OIk_MROJQ9XV3c40Lx3w" version="22.0.3" type="github">
  <diagram id="C5RBs43oDa-KdzZeNtuy" name="Page-1">
    <mxGraphModel dx="1363" dy="881" grid="1" gridSize="10" guides="1" tooltips="1" connect="1" arrows="1" fold="1" page="1" pageScale="1" pageWidth="827" pageHeight="1169" math="0" shadow="0">
      <root>
        <mxCell id="WIyWlLk6GJQsqaUBKTNV-0" />
        <mxCell id="WIyWlLk6GJQsqaUBKTNV-1" parent="WIyWlLk6GJQsqaUBKTNV-0" />
        <mxCell id="o52fl90CU0ByIc8AqeYN-0" value="&lt;font style=&quot;font-size: 16px;&quot;&gt;FER2013&lt;/font&gt;" style="shape=cylinder3;whiteSpace=wrap;html=1;boundedLbl=1;backgroundOutline=1;size=15;" parent="WIyWlLk6GJQsqaUBKTNV-1" vertex="1">
          <mxGeometry x="170" y="220" width="100" height="80" as="geometry" />
        </mxCell>
        <mxCell id="o52fl90CU0ByIc8AqeYN-1" value="" style="endArrow=classic;html=1;rounded=0;exitX=1;exitY=0.5;exitDx=0;exitDy=0;exitPerimeter=0;entryX=0;entryY=0.5;entryDx=0;entryDy=0;" parent="WIyWlLk6GJQsqaUBKTNV-1" source="o52fl90CU0ByIc8AqeYN-0" target="o52fl90CU0ByIc8AqeYN-7" edge="1">
          <mxGeometry width="50" height="50" relative="1" as="geometry">
            <mxPoint x="50" y="520" as="sourcePoint" />
            <mxPoint x="284" y="260" as="targetPoint" />
          </mxGeometry>
        </mxCell>
        <mxCell id="o52fl90CU0ByIc8AqeYN-7" value="&lt;font style=&quot;font-size: 16px;&quot;&gt;ResNet 152&lt;/font&gt;" style="rounded=0;whiteSpace=wrap;html=1;" parent="WIyWlLk6GJQsqaUBKTNV-1" vertex="1">
          <mxGeometry x="330" y="230" width="120" height="60" as="geometry" />
        </mxCell>
        <mxCell id="o52fl90CU0ByIc8AqeYN-10" value="" style="endArrow=classic;html=1;rounded=0;exitX=1;exitY=0.5;exitDx=0;exitDy=0;entryX=0;entryY=0.5;entryDx=0;entryDy=0;" parent="WIyWlLk6GJQsqaUBKTNV-1" edge="1" target="o52fl90CU0ByIc8AqeYN-14">
          <mxGeometry width="50" height="50" relative="1" as="geometry">
            <mxPoint x="623" y="259" as="sourcePoint" />
            <mxPoint x="713" y="220" as="targetPoint" />
          </mxGeometry>
        </mxCell>
        <mxCell id="o52fl90CU0ByIc8AqeYN-11" value="" style="endArrow=classic;html=1;rounded=0;entryX=0;entryY=0.5;entryDx=0;entryDy=0;" parent="WIyWlLk6GJQsqaUBKTNV-1" edge="1" target="o52fl90CU0ByIc8AqeYN-15">
          <mxGeometry width="50" height="50" relative="1" as="geometry">
            <mxPoint x="623" y="259" as="sourcePoint" />
            <mxPoint x="703" y="229" as="targetPoint" />
          </mxGeometry>
        </mxCell>
        <mxCell id="o52fl90CU0ByIc8AqeYN-12" value="" style="endArrow=classic;html=1;rounded=0;entryX=0;entryY=0.5;entryDx=0;entryDy=0;" parent="WIyWlLk6GJQsqaUBKTNV-1" edge="1" target="o52fl90CU0ByIc8AqeYN-16">
          <mxGeometry width="50" height="50" relative="1" as="geometry">
            <mxPoint x="623" y="259" as="sourcePoint" />
            <mxPoint x="703" y="289" as="targetPoint" />
          </mxGeometry>
        </mxCell>
        <mxCell id="o52fl90CU0ByIc8AqeYN-13" value="" style="endArrow=none;dashed=1;html=1;dashPattern=1 3;strokeWidth=2;rounded=0;" parent="WIyWlLk6GJQsqaUBKTNV-1" edge="1">
          <mxGeometry width="50" height="50" relative="1" as="geometry">
            <mxPoint x="693" y="276" as="sourcePoint" />
            <mxPoint x="693" y="256" as="targetPoint" />
          </mxGeometry>
        </mxCell>
        <mxCell id="o52fl90CU0ByIc8AqeYN-14" value="angry" style="text;html=1;strokeColor=none;fillColor=none;align=center;verticalAlign=middle;whiteSpace=wrap;rounded=0;" parent="WIyWlLk6GJQsqaUBKTNV-1" vertex="1">
          <mxGeometry x="703" y="203" width="60" height="30" as="geometry" />
        </mxCell>
        <mxCell id="o52fl90CU0ByIc8AqeYN-15" value="disgust" style="text;html=1;strokeColor=none;fillColor=none;align=center;verticalAlign=middle;whiteSpace=wrap;rounded=0;" parent="WIyWlLk6GJQsqaUBKTNV-1" vertex="1">
          <mxGeometry x="703" y="229" width="60" height="30" as="geometry" />
        </mxCell>
        <mxCell id="o52fl90CU0ByIc8AqeYN-16" value="surprise" style="text;html=1;strokeColor=none;fillColor=none;align=center;verticalAlign=middle;whiteSpace=wrap;rounded=0;" parent="WIyWlLk6GJQsqaUBKTNV-1" vertex="1">
          <mxGeometry x="703" y="274" width="60" height="30" as="geometry" />
        </mxCell>
        <mxCell id="gL0_yDRBWzo72JwToFCf-0" value="MODEL 1" style="text;html=1;strokeColor=none;fillColor=none;align=center;verticalAlign=middle;whiteSpace=wrap;rounded=0;fontSize=16;" vertex="1" parent="WIyWlLk6GJQsqaUBKTNV-1">
          <mxGeometry x="100" y="190" width="80" height="30" as="geometry" />
        </mxCell>
        <mxCell id="gL0_yDRBWzo72JwToFCf-2" value="MODEL 2" style="text;html=1;strokeColor=none;fillColor=none;align=center;verticalAlign=middle;whiteSpace=wrap;rounded=0;fontSize=16;" vertex="1" parent="WIyWlLk6GJQsqaUBKTNV-1">
          <mxGeometry x="100" y="340" width="80" height="30" as="geometry" />
        </mxCell>
        <mxCell id="gL0_yDRBWzo72JwToFCf-3" value="dataset" style="text;html=1;strokeColor=none;fillColor=none;align=center;verticalAlign=middle;whiteSpace=wrap;rounded=0;fontSize=16;" vertex="1" parent="WIyWlLk6GJQsqaUBKTNV-1">
          <mxGeometry x="180" y="155" width="80" height="30" as="geometry" />
        </mxCell>
        <mxCell id="gL0_yDRBWzo72JwToFCf-4" value="learning" style="text;html=1;strokeColor=none;fillColor=none;align=center;verticalAlign=middle;whiteSpace=wrap;rounded=0;fontSize=16;" vertex="1" parent="WIyWlLk6GJQsqaUBKTNV-1">
          <mxGeometry x="350" y="155" width="80" height="30" as="geometry" />
        </mxCell>
        <mxCell id="gL0_yDRBWzo72JwToFCf-5" value="classification" style="text;html=1;strokeColor=none;fillColor=none;align=center;verticalAlign=middle;whiteSpace=wrap;rounded=0;fontSize=16;" vertex="1" parent="WIyWlLk6GJQsqaUBKTNV-1">
          <mxGeometry x="520" y="150" width="80" height="30" as="geometry" />
        </mxCell>
        <mxCell id="gL0_yDRBWzo72JwToFCf-6" value="&lt;font style=&quot;font-size: 16px;&quot;&gt;case image&lt;/font&gt;" style="whiteSpace=wrap;html=1;aspect=fixed;" vertex="1" parent="WIyWlLk6GJQsqaUBKTNV-1">
          <mxGeometry x="490" y="290" width="80" height="80" as="geometry" />
        </mxCell>
        <mxCell id="gL0_yDRBWzo72JwToFCf-7" value="" style="endArrow=classic;html=1;rounded=0;exitX=1;exitY=0.5;exitDx=0;exitDy=0;" edge="1" parent="WIyWlLk6GJQsqaUBKTNV-1" source="o52fl90CU0ByIc8AqeYN-7">
          <mxGeometry width="50" height="50" relative="1" as="geometry">
            <mxPoint x="480" y="259.5" as="sourcePoint" />
            <mxPoint x="620" y="260" as="targetPoint" />
          </mxGeometry>
        </mxCell>
        <mxCell id="gL0_yDRBWzo72JwToFCf-8" value="" style="endArrow=classic;html=1;rounded=0;exitX=0.5;exitY=0;exitDx=0;exitDy=0;" edge="1" parent="WIyWlLk6GJQsqaUBKTNV-1" source="gL0_yDRBWzo72JwToFCf-6">
          <mxGeometry width="50" height="50" relative="1" as="geometry">
            <mxPoint x="389" y="350" as="sourcePoint" />
            <mxPoint x="530" y="260" as="targetPoint" />
          </mxGeometry>
        </mxCell>
        <mxCell id="gL0_yDRBWzo72JwToFCf-9" value="&lt;span style=&quot;font-size: 16px;&quot;&gt;WikiART FACE&lt;/span&gt;" style="shape=cylinder3;whiteSpace=wrap;html=1;boundedLbl=1;backgroundOutline=1;size=15;" vertex="1" parent="WIyWlLk6GJQsqaUBKTNV-1">
          <mxGeometry x="170" y="360" width="100" height="80" as="geometry" />
        </mxCell>
        <mxCell id="gL0_yDRBWzo72JwToFCf-10" value="" style="endArrow=classic;html=1;rounded=0;entryX=0;entryY=0.5;entryDx=0;entryDy=0;exitX=1;exitY=0.5;exitDx=0;exitDy=0;exitPerimeter=0;" edge="1" parent="WIyWlLk6GJQsqaUBKTNV-1" source="gL0_yDRBWzo72JwToFCf-9" target="gL0_yDRBWzo72JwToFCf-11">
          <mxGeometry width="50" height="50" relative="1" as="geometry">
            <mxPoint x="290" y="435" as="sourcePoint" />
            <mxPoint x="330" y="399.5" as="targetPoint" />
          </mxGeometry>
        </mxCell>
        <mxCell id="gL0_yDRBWzo72JwToFCf-11" value="&lt;font style=&quot;font-size: 16px;&quot;&gt;ResNet 152&lt;/font&gt;" style="rounded=0;whiteSpace=wrap;html=1;" vertex="1" parent="WIyWlLk6GJQsqaUBKTNV-1">
          <mxGeometry x="330" y="370" width="120" height="60" as="geometry" />
        </mxCell>
        <mxCell id="gL0_yDRBWzo72JwToFCf-13" value="" style="endArrow=classic;html=1;rounded=0;exitX=1;exitY=0.5;exitDx=0;exitDy=0;" edge="1" parent="WIyWlLk6GJQsqaUBKTNV-1">
          <mxGeometry width="50" height="50" relative="1" as="geometry">
            <mxPoint x="455" y="399.5" as="sourcePoint" />
            <mxPoint x="620" y="400" as="targetPoint" />
          </mxGeometry>
        </mxCell>
        <mxCell id="gL0_yDRBWzo72JwToFCf-14" value="" style="endArrow=classic;html=1;rounded=0;" edge="1" parent="WIyWlLk6GJQsqaUBKTNV-1" source="gL0_yDRBWzo72JwToFCf-6">
          <mxGeometry width="50" height="50" relative="1" as="geometry">
            <mxPoint x="569" y="300" as="sourcePoint" />
            <mxPoint x="530" y="400" as="targetPoint" />
          </mxGeometry>
        </mxCell>
        <mxCell id="gL0_yDRBWzo72JwToFCf-15" value="" style="endArrow=classic;html=1;rounded=0;exitX=1;exitY=0.5;exitDx=0;exitDy=0;entryX=0;entryY=0.5;entryDx=0;entryDy=0;" edge="1" parent="WIyWlLk6GJQsqaUBKTNV-1">
          <mxGeometry width="50" height="50" relative="1" as="geometry">
            <mxPoint x="623" y="399" as="sourcePoint" />
            <mxPoint x="703" y="358" as="targetPoint" />
          </mxGeometry>
        </mxCell>
        <mxCell id="gL0_yDRBWzo72JwToFCf-16" value="" style="endArrow=classic;html=1;rounded=0;entryX=0;entryY=0.5;entryDx=0;entryDy=0;" edge="1" parent="WIyWlLk6GJQsqaUBKTNV-1">
          <mxGeometry width="50" height="50" relative="1" as="geometry">
            <mxPoint x="623" y="399" as="sourcePoint" />
            <mxPoint x="703" y="384" as="targetPoint" />
          </mxGeometry>
        </mxCell>
        <mxCell id="gL0_yDRBWzo72JwToFCf-17" value="" style="endArrow=classic;html=1;rounded=0;entryX=0;entryY=0.5;entryDx=0;entryDy=0;" edge="1" parent="WIyWlLk6GJQsqaUBKTNV-1">
          <mxGeometry width="50" height="50" relative="1" as="geometry">
            <mxPoint x="623" y="399" as="sourcePoint" />
            <mxPoint x="703" y="429" as="targetPoint" />
          </mxGeometry>
        </mxCell>
        <mxCell id="gL0_yDRBWzo72JwToFCf-18" value="" style="endArrow=none;dashed=1;html=1;dashPattern=1 3;strokeWidth=2;rounded=0;" edge="1" parent="WIyWlLk6GJQsqaUBKTNV-1">
          <mxGeometry width="50" height="50" relative="1" as="geometry">
            <mxPoint x="693" y="416" as="sourcePoint" />
            <mxPoint x="693" y="396" as="targetPoint" />
          </mxGeometry>
        </mxCell>
        <mxCell id="gL0_yDRBWzo72JwToFCf-19" value="abstract expressionism" style="text;html=1;strokeColor=none;fillColor=none;align=center;verticalAlign=middle;whiteSpace=wrap;rounded=0;" vertex="1" parent="WIyWlLk6GJQsqaUBKTNV-1">
          <mxGeometry x="703" y="344" width="100" height="30" as="geometry" />
        </mxCell>
        <mxCell id="gL0_yDRBWzo72JwToFCf-20" value="baroque" style="text;html=1;strokeColor=none;fillColor=none;align=center;verticalAlign=middle;whiteSpace=wrap;rounded=0;" vertex="1" parent="WIyWlLk6GJQsqaUBKTNV-1">
          <mxGeometry x="703" y="370" width="100" height="30" as="geometry" />
        </mxCell>
        <mxCell id="gL0_yDRBWzo72JwToFCf-21" value="symbolism" style="text;html=1;strokeColor=none;fillColor=none;align=center;verticalAlign=middle;whiteSpace=wrap;rounded=0;" vertex="1" parent="WIyWlLk6GJQsqaUBKTNV-1">
          <mxGeometry x="703" y="415" width="100" height="30" as="geometry" />
        </mxCell>
        <mxCell id="gL0_yDRBWzo72JwToFCf-22" value="visualization" style="text;html=1;strokeColor=none;fillColor=none;align=center;verticalAlign=middle;whiteSpace=wrap;rounded=0;fontSize=16;" vertex="1" parent="WIyWlLk6GJQsqaUBKTNV-1">
          <mxGeometry x="823" y="149" width="80" height="30" as="geometry" />
        </mxCell>
        <mxCell id="gL0_yDRBWzo72JwToFCf-23" value="&lt;font style=&quot;font-size: 16px;&quot;&gt;Grad-CAM&lt;/font&gt;" style="rounded=0;whiteSpace=wrap;html=1;" vertex="1" parent="WIyWlLk6GJQsqaUBKTNV-1">
          <mxGeometry x="803" y="229" width="120" height="60" as="geometry" />
        </mxCell>
        <mxCell id="gL0_yDRBWzo72JwToFCf-24" value="&lt;font style=&quot;font-size: 16px;&quot;&gt;Grad-CAM&lt;/font&gt;" style="rounded=0;whiteSpace=wrap;html=1;" vertex="1" parent="WIyWlLk6GJQsqaUBKTNV-1">
          <mxGeometry x="803" y="369" width="120" height="60" as="geometry" />
        </mxCell>
      </root>
    </mxGraphModel>
  </diagram>
</mxfile>
